<svg width="947" height="272" viewBox="0 0 947 272" fill="none" xmlns="http://www.w3.org/2000/svg">
<path d="M273.6 94.9333C274 145.6 274 146 277.2 152.4C281.333 160.933 288.133 165.333 298.267 166.267C313.867 167.6 324.933 161.333 328.667 148.933C330.267 143.467 330.667 133.067 330.667 93.0667V44H322H313.467L313.067 94.1333L312.667 144.267L309.467 146.8C305.467 150.133 299.333 150 296 146.667C293.467 144.133 293.333 142.267 293.333 94V44H283.2H273.2L273.6 94.9333Z" fill="black"/>
<path d="M414.667 104.667V165.333H422.667H430.667L430.933 124.267L431.333 83.3334L437.733 122C441.333 143.2 444.533 161.733 444.8 162.933C445.333 164.933 447.067 165.333 454 165.333C460.933 165.333 462.667 164.933 463.2 162.933C463.467 161.733 466.4 143.2 469.6 122L475.333 83.3334L475.733 124.267L476 165.333H485.333H494.667V104.667V44H481.467C472.133 44 468.133 44.5334 467.733 45.6C467.333 46.5334 464.4 65.2 461.2 86.9334C458 108.8 455.067 126.667 454.667 126.667C454.267 126.667 450.933 108.267 447.333 85.6L440.667 44.6667L427.733 44.2667L414.667 43.8667V104.667Z" fill="black"/>
<path d="M592.667 46.9334C592.4 48.6667 588.133 74.9334 583.333 105.333C578.533 135.733 574.4 161.733 574.133 163.067C573.6 165.2 574.533 165.467 582.4 165.067L591.333 164.667L592.933 154.667C593.733 149.2 594.533 144.533 594.533 144.267C594.667 144.133 600 144 606.533 144H618.267L619.2 151.6C620.933 165.867 620.4 165.333 630.8 165.333C635.867 165.333 640 164.8 640 164.133C640 163.467 635.867 136.667 630.667 104.667C625.6 72.6667 621.333 45.8667 621.333 45.2C621.333 44.5334 615.067 44 607.333 44C594 44 593.333 44.1334 592.667 46.9334ZM610.667 95.8667C612.8 110 614.667 122.667 614.667 124.133C614.667 126.4 613.733 126.667 606 126.667C599.733 126.667 597.333 126.133 597.333 124.933C597.333 124 599.067 111.467 601.333 97.2C603.467 83.0667 605.333 70.8 605.333 70.1334C605.333 69.4667 605.6 69.2 606 69.4667C606.267 69.8667 608.4 81.7334 610.667 95.8667Z" fill="black"/>
<path d="M720 104.667V165.333H728H736L736.267 124.267L736.667 83.3334L743.067 122C746.667 143.2 749.867 161.733 750.133 162.933C750.667 164.933 752.4 165.333 759.333 165.333C766.267 165.333 768 164.933 768.533 162.933C768.8 161.733 771.733 143.2 774.933 122L780.667 83.3334L781.067 124.267L781.333 165.333H790.667H800V104.667V44H786.8C777.467 44 773.467 44.5334 773.067 45.6C772.667 46.5334 769.733 65.2 766.533 86.9334C763.333 108.8 760.4 126.667 760 126.667C759.6 126.667 756.267 108.267 752.667 85.6L746 44.6667L733.067 44.2667L720 43.8667V104.667Z" fill="black"/>
<path d="M884 104.667V165.333H893.333H902.667V104.667V44H893.333H884V104.667Z" fill="black"/>
<path d="M140.533 24C137.2 29.8666 133.733 34.6666 132.933 34.6666C132 34.6666 128 33.7333 124 32.6666C120 31.6 111.467 30.6666 105.2 30.6666C61.2 30.6666 26.5333 65.2 26.1333 109.333C26 127.333 28.4 126.933 29.6 108.667C30.1333 97.6 31.3333 91.7333 33.8667 84.6666C43.0667 60.2666 60.8 43.8666 85.8667 36.6666C95.3333 33.8666 120.8 34.4 127.6 37.4666L132 39.3333L117.6 63.7333L103.333 88.2666L95.8667 91.2C91.7333 92.9333 86.5333 95.4666 84.2667 97.0666C79.3333 100.667 73.3333 112.267 73.3333 118.267C73.3333 121.6 72.5333 123.067 69.7333 124.533C64.4 127.333 60.5333 131.867 57.2 139.2C54.8 144.667 54.4 148.133 54.5333 159.333C54.6667 180 60.9333 194.133 74.5333 204.533L81.3333 209.6V218.8V228H105.333H129.333V218.133C129.333 209.733 129.733 208 131.733 207.467C135.333 206.267 145.067 196.133 148.933 189.733C153.733 181.467 155.867 171.733 156.133 157.867C156.267 148 155.733 144.4 153.467 139.2C150.133 131.867 146.267 127.2 141.067 124.533C138.133 123.067 137.333 121.6 137.333 118.4C137.333 113.333 133.333 104.667 128.533 99.4666L124.933 95.7333L143.2 77.4666L161.467 59.3333L165.467 64C175.2 75.3333 181.333 94.5333 181.333 113.733C181.333 121.467 181.733 124.133 183.067 123.733C185.333 122.933 185.867 109.2 184 98C181.867 85.8666 175.6 70.8 169.333 62.8L164.267 56.4L175.467 45.2C185.467 35.3333 188.667 30.6666 185.733 30.6666C185.067 30.6666 170.533 44.8 153.2 62.1333L121.6 93.7333L115.2 91.2C111.6 90 108.533 88.8 108.267 88.5333C108 88.4 116.933 72.6666 128.133 53.3333C139.2 34.1333 148.667 17.2 148.933 15.8666C150.533 9.99996 146.267 14.1333 140.533 24ZM115.733 95.4666C124.8 99.2 133.2 110.133 133.333 118.133C133.333 122.8 127.067 120.8 126 115.867C124.8 110.267 117.467 103.2 110.933 101.333C106.4 99.8666 104.267 99.8666 99.7333 101.2C92.9333 103.333 85.6 110.267 84.5333 115.867C83.8667 119.2 82.9333 120 80.2667 120C77.2 120 77.0667 119.6 77.7333 115.2C80.2667 99.4666 100.4 88.9333 115.733 95.4666ZM113.067 105.867C117.867 108.4 120.933 111.867 122 116.267C122.8 119.6 122.533 120 119.733 120C117.467 120 116.133 118.933 115.067 116.133C112.267 108.4 99.2 108.4 95.2 116.133C93.0667 120.533 88 121.467 88 117.6C88 111.6 97.6 104 105.067 104C107.467 104 111.067 104.8 113.067 105.867ZM110.267 116.8L113.733 120.267L109.467 122.8C105.6 125.2 104.933 125.2 101.333 123.333C96.5333 120.933 96.4 119.6 100.267 116C104.133 112.533 106.133 112.667 110.267 116.8ZM97.8667 125.333C105.067 128 100.267 132.667 92.1333 130.8C80 128.133 68.8 134.533 66 145.733C65.3333 148.4 64.2667 149.333 61.8667 149.333C57.8667 149.333 57.6 145.867 61.2 138.933C67.8667 125.867 83.8667 120 97.8667 125.333ZM138 127.2C144 130.4 150.267 138.667 151.467 144.933C152.267 148.933 152 149.333 149.2 149.333C146.667 149.333 145.333 148 143.067 142.933C137.467 130.933 122.667 126.667 112 134C107.333 137.2 102.667 144.133 102.667 147.867C102.667 148.667 101.2 149.333 99.3333 149.333C95.3333 149.333 94.9333 146 98.1333 139.6C105.867 124.4 122.933 119.067 138 127.2ZM93.7333 135.867C96.2667 138.267 93.2 140.8 88.5333 140.267C84.6667 139.733 83.2 140.4 79.3333 144.533C74.9333 149.2 69.3333 150.933 69.3333 147.6C69.3333 143.6 76.4 136.267 82 134.4C84.9333 133.467 92 134.4 93.7333 135.867ZM129.733 135.2C134.667 137.333 139.333 142 140.667 146.267C141.333 148.933 141.067 149.333 138.133 149.333C136.267 149.333 134.667 148.667 134.667 148C134.667 147.2 133.2 145.067 131.333 143.333C126.533 138.4 120.667 138.933 115.2 144.667C110.933 149.2 106.667 150.8 106.667 147.867C106.667 145.067 111.867 137.867 114.933 136.4C122 132.933 124.133 132.8 129.733 135.2ZM92 146.667C92 148.933 91.0667 149.333 85.7333 149.333C79.7333 149.333 79.6 149.333 82 146.667C83.3333 145.2 86.1333 144 88.2667 144C91.0667 144 92 144.667 92 146.667ZM128.133 145.333C132.667 147.867 130.8 149.333 123.067 149.333C115.733 149.333 115.6 149.333 118 146.667C120.667 143.733 124.133 143.333 128.133 145.333ZM152 156C152 158.533 150.8 158.667 105.333 158.667C59.4667 158.667 58.6667 158.667 58.6667 156C58.6667 153.333 59.3333 153.333 105.333 153.333C150.8 153.467 152 153.467 152 156ZM152 168C152 183.2 138 201.867 122 207.867C111.067 212 95.8667 211.467 85.3333 206.533C71.0667 199.867 60.1333 184.667 58.9333 169.6L58.4 162.667H105.2H152V168ZM107.733 214.267C113.333 213.867 119.6 213.2 121.733 212.667C125.333 211.733 125.333 211.733 125.333 217.867V224H105.333H85.3333V217.467V210.8L91.3333 212.933C95.7333 214.4 100.4 214.8 107.733 214.267Z" fill="#FF1616"/>
<path d="M19.7333 132.8C19.2 133.333 15.8666 134.4 12.4 135.333C5.99997 136.933 2.9333 140 7.7333 140C9.19997 140 12.9333 139.067 16 138C23.3333 135.467 30.5333 135.467 38.8 138.133C44.8 140.133 50.9333 139.867 48.8 137.733C45.8666 134.8 21.7333 130.667 19.7333 132.8Z" fill="#FF1616"/>
<path d="M175.733 132.8C175.2 133.333 171.867 134.4 168.4 135.333C162 136.933 158.933 140 163.733 140C165.2 140 168.933 139.067 172 138C179.333 135.467 186.533 135.467 194.8 138.133C200.8 140.133 206.933 139.867 204.8 137.733C201.867 134.8 177.733 130.667 175.733 132.8Z" fill="#FF1616"/>
<path d="M21.0666 143.467C20.5333 144 17.2 145.067 13.7333 146C6.26662 147.867 3.86662 151.333 10.8 150.4C13.3333 150 18.1333 148.933 21.6 147.867C26.9333 146.4 28.9333 146.4 33.6 147.867C43.3333 150.8 48 151.2 48 149.067C48 146 23.6 140.8 21.0666 143.467Z" fill="#FF1616"/>
<path d="M177.067 143.467C176.533 144 173.2 145.067 169.733 146C162.267 147.867 159.867 151.333 166.8 150.4C169.333 150 174.133 148.933 177.6 147.867C182.933 146.4 184.933 146.4 189.6 147.867C199.333 150.8 204 151.2 204 149.067C204 146 179.6 140.8 177.067 143.467Z" fill="#FF1616"/>
<path d="M19.3333 154.8C17.2 155.6 13.3333 156.667 10.8 157.067C5.33334 158.133 3.6 161.333 8.4 161.333C10.1333 161.333 14.2667 160.4 17.3333 159.333C20.4 158.267 25.0667 157.333 27.6 157.333C30 157.333 34.2667 158.267 36.9333 159.333C42.5333 161.733 48.4 162 47.7333 159.733C46.5333 156.267 25.7333 152.533 19.3333 154.8Z" fill="#FF1616"/>
<path d="M175.333 154.8C173.2 155.6 169.333 156.667 166.8 157.067C161.333 158.133 159.6 161.333 164.4 161.333C166.133 161.333 170.267 160.4 173.333 159.333C176.4 158.267 181.067 157.333 183.6 157.333C186 157.333 190.267 158.267 192.933 159.333C198.533 161.733 204.4 162 203.733 159.733C202.533 156.267 181.733 152.533 175.333 154.8Z" fill="#FF1616"/>
<path d="M26.1333 167.6C25.7333 168 25.3333 172.667 25.3333 177.867C25.4666 206.267 39.4666 233.333 61.8666 247.867C74.8 256.267 88.2666 260.267 104.8 260.267C127.733 260.4 146 252.8 161.467 237.067C176.533 221.733 183.467 205.2 184.933 181.6C185.6 169.467 185.467 168 183.6 168C181.733 168 181.333 169.6 181.333 178.4C181.333 214.133 159.333 244.267 126 254.133C114.4 257.6 95.3333 257.333 83.3333 253.6C62.9333 247.333 46.5333 233.333 37.3333 214C31.6 202 29.3333 192 29.3333 177.867C29.3333 168.933 28.2666 165.467 26.1333 167.6Z" fill="#FF1616"/>
<path d="M336.267 193.6C335.2 194.667 334.667 199.867 334.667 208C334.667 216.133 335.2 221.333 336.267 222.4C338.933 225.067 344.933 224.267 347.2 221.067C350.267 216.667 350 212 346.667 212C344.533 212 344 212.933 344 216.133C344 219.333 343.467 220.133 341.733 219.733C339.6 219.333 339.333 217.733 339.333 208C339.333 198.267 339.6 196.667 341.733 196.267C343.467 195.867 344 196.667 344 199.2C344 201.733 344.667 202.667 346.667 202.667C349.867 202.667 350.133 199.2 347.2 194.933C344.933 191.733 338.933 190.933 336.267 193.6Z" fill="#FF1616"/>
<path d="M371.467 194.133C369.867 195.733 369.333 199.067 369.333 208C369.333 220.8 370.8 224 376.667 224C382.533 224 384 220.8 384 208C384 195.2 382.533 192 376.667 192C374.933 192 372.533 192.933 371.467 194.133ZM379.2 198.133C379.6 199.333 380 203.733 380 208C380 216.933 379.067 220 376.533 220C375.067 220 374.667 217.333 374.667 208C374.667 198.667 375.067 196 376.533 196C377.6 196 378.8 196.933 379.2 198.133Z" fill="#FF1616"/>
<path d="M405.333 208C405.333 221.333 405.733 224 407.333 224C408.933 224 409.333 222 409.467 214.933L409.6 206L410.8 212C411.467 215.333 412.4 219.333 412.8 220.933C413.067 222.667 414.267 224 415.333 224C416.4 224 417.6 222.667 417.867 220.933C418.133 219.333 419.067 215.333 419.733 212L421.067 206L421.2 214.933C421.333 222 421.733 224 423.333 224C425.067 224 425.333 221.333 425.333 208V192H422.133C419.2 192 418.8 192.667 417.867 199.6C416.267 212.8 415.2 213.333 413.467 202.267C411.867 192.8 411.6 192 408.533 192H405.333V208Z" fill="#FF1616"/>
<path d="M446.667 208C446.667 223.067 446.8 224 449.333 224C451.867 224 452 223.067 452 208C452 192.933 451.867 192 449.333 192C446.8 192 446.667 192.933 446.667 208Z" fill="#FF1616"/>
<path d="M473.333 208V224H478.533C486.667 224 488 221.733 488 208C488 194.267 486.667 192 478.533 192H473.333V208ZM483.2 198.133C483.6 199.333 484 203.733 484 208C484 217.467 483.2 220 479.867 220C477.6 220 477.333 218.933 477.333 208C477.333 197.067 477.6 196 479.867 196C481.2 196 482.8 196.933 483.2 198.133Z" fill="#FF1616"/>
<path d="M510.267 205.333C507.467 221.6 507.467 224 510 224C511.067 224 512 222.8 512 221.333C512 219.467 512.933 218.667 515.2 218.667C517.2 218.667 518.667 219.6 519.067 221.333C519.867 224.267 524 225.067 524 222.267C524 221.467 523.067 214.267 521.733 206.267C519.467 192.267 519.467 192 516 192C512.533 192 512.4 192.4 510.267 205.333ZM517.333 208.667C518.133 214 518 214.667 515.6 214.667C513.333 214.667 513.067 214 513.867 210.533C514.267 208.267 514.667 205.067 514.667 203.6C514.667 199.067 516.4 202.267 517.333 208.667Z" fill="#FF1616"/>
<path d="M572 205.333C572 216 571.6 218.933 570 219.467C567.2 220.667 567.467 224 570.4 224C575.867 224 577.333 220 577.333 205.6C577.333 192.933 577.2 192 574.667 192C572.133 192 572 192.933 572 205.333Z" fill="#FF1616"/>
<path d="M600.267 202.933C599.333 209.067 598.267 216.267 597.867 218.933C597.2 222.933 597.467 224 599.067 224C600.133 224 601.333 222.8 601.733 221.333C602.133 219.467 603.6 218.667 605.867 218.667C608.4 218.667 609.333 219.333 609.333 221.333C609.333 223.067 610.267 224 612 224C614.133 224 614.533 223.333 614 220.933C613.2 217.067 609.333 194.267 609.333 192.933C609.333 192.4 607.6 192 605.6 192C602 192 601.867 192.267 600.267 202.933ZM607.067 208.267C607.867 214 607.733 214.667 605.333 214.667C603.2 214.667 602.933 214 603.467 209.6C604.933 199.2 605.867 198.933 607.067 208.267Z" fill="#FF1616"/>
<path d="M633.333 208C633.333 223.067 633.467 224 636 224C638.267 224 638.667 223.067 638.667 218C638.667 212.667 638.933 212 641.733 212C646.4 212 648 209.467 648 202C648 193.733 646.533 192 639.067 192H633.333V208ZM643.333 202C643.333 206 642.8 207.467 641.067 207.733C639.067 208.133 638.667 207.2 638.667 202C638.667 196.8 639.067 195.867 641.067 196.267C642.8 196.533 643.333 198 643.333 202Z" fill="#FF1616"/>
<path d="M670.267 194.4C666.8 198.133 667.067 218.667 670.4 221.733C673.2 224.267 676.4 224.533 680.133 222.667C682.4 221.333 682.667 219.733 682.667 208C682.667 196.267 682.4 194.667 680.133 193.333C676.267 191.333 672.667 191.733 670.267 194.4ZM678 208C678 217.733 677.733 219.333 675.733 219.733C673.6 220.133 673.333 218.933 673.333 208C673.333 197.067 673.6 195.867 675.733 196.267C677.733 196.667 678 198.267 678 208Z" fill="#FF1616"/>
<path d="M704 208C704 221.067 704.4 224 706 224C707.467 224 708 221.6 708.267 213.6L708.667 203.333L711.467 213.333C713.733 221.467 714.8 223.467 717.067 223.733C720 224.133 720 223.867 720 208.133C720 193.067 719.867 192 717.333 192C715.2 192 714.8 193.067 714.4 199.6L714 207.333L712.133 199.6C710.533 193.067 709.867 192 707.067 192C704 192 704 192.133 704 208Z" fill="#FF1616"/>
<path d="M740 208V224H746.667C751.733 224 753.333 223.467 753.333 222C753.333 220.667 752 220 749.333 220C745.6 220 745.333 219.733 745.333 214.667C745.333 209.867 745.733 209.333 748.667 209.333C750.8 209.333 752 208.533 752 207.333C752 206.133 750.8 205.333 748.667 205.333C745.733 205.333 745.333 204.8 745.333 200.667C745.333 196.4 745.6 196 749.333 196C752 196 753.333 195.333 753.333 194C753.333 192.533 751.733 192 746.667 192H740V208Z" fill="#FF1616"/>
<path d="M777.067 193.467C772.933 195.733 774 202.933 779.333 209.467C782 212.533 784 216 783.733 217.067C783.067 220.267 779.867 220.533 779.067 217.467C778 213.6 774.667 213.867 774.667 218C774.667 224.267 783.867 226.133 787.467 220.667C790.267 216.4 789.2 212.4 783.333 205.333C780.667 202.133 778.8 198.933 779.067 198.133C779.867 195.733 784 195.6 784 197.867C784 199.067 785.067 200 786.667 200C789.867 200 790 198.933 787.2 194.933C785.067 191.867 780.8 191.2 777.067 193.467Z" fill="#FF1616"/>
<path d="M812.667 194.933C811.867 198.933 808 221.733 808 222.933C808 225.2 812.267 223.867 812.933 221.333C813.333 219.6 814.8 218.667 816.8 218.667C819.067 218.667 820 219.467 820 221.333C820 223.2 820.933 224 822.8 224C825.067 224 825.467 223.333 824.8 220.267C824.4 218.267 823.467 212.4 822.667 207.333C820.267 192 820.267 192 816.667 192C814.4 192 813.2 192.933 812.667 194.933ZM817.867 208.267C818.8 214 818.533 214.667 816.267 214.667C813.6 214.667 813.6 213.467 815.467 204.133C816.4 200 816.8 200.8 817.867 208.267Z" fill="#FF1616"/>
</svg>
